<svg width="22" height="24" viewBox="0 0 22 24" fill="none" xmlns="http://www.w3.org/2000/svg">
<path d="M9.70571 23.4977C10.4216 24.1674 11.5841 24.1674 12.3 23.4977L21.4631 14.9258C22.179 14.2562 22.179 13.1686 21.4631 12.4989C20.7472 11.8292 19.5847 11.8292 18.8688 12.4989L12.8326 18.151V1.71438C12.8326 0.766114 12.0137 3.13106e-07 11 3.13106e-07C9.98633 3.13106e-07 9.16738 0.766114 9.16738 1.71438V18.151L3.1312 12.5043C2.41533 11.8346 1.25277 11.8346 0.536899 12.5043C-0.178967 13.1739 -0.178967 14.2615 0.536899 14.9312L9.69999 23.5031L9.70571 23.4977Z" fill="#FF0202"/>
</svg>
