<svg width="20" height="19" viewBox="0 0 20 19" fill="none" xmlns="http://www.w3.org/2000/svg">
<path id="Vector" d="M18.7671 0.394528L19.1174 0.744846C19.1361 6.44522 19.1417 12.1764 19.1342 17.9385C19.1342 18.0954 19.0558 18.2243 19.0039 18.3687L18.7937 18.5788C18.655 18.6195 18.5289 18.698 18.3804 18.698C12.6118 18.7064 6.87777 18.6998 1.17832 18.6783L0.853228 18.3532C0.595393 17.5461 0.938705 17.1047 1.7066 17.1075C6.94269 17.1234 11.7916 17.1248 16.2532 17.1117C16.3392 17.1117 16.3522 17.0809 16.2925 17.0192C10.6192 11.2712 5.54422 6.18692 1.06762 1.76637C0.708896 1.41139 0.64257 1.03304 0.868642 0.631343L1.10406 0.395929C1.49268 0.218434 1.79769 0.240388 2.01909 0.461789C7.17857 5.62128 12.3231 10.7649 17.4527 15.8926C17.5228 15.9627 17.5573 15.9487 17.5564 15.8506C17.5536 11.061 17.5527 6.1603 17.5536 1.14841C17.5536 0.456184 18.1155 0.135292 18.7671 0.394528Z" fill="black"/>
</svg>
