<svg width="192" height="165" viewBox="0 0 192 165" fill="none" xmlns="http://www.w3.org/2000/svg">
<g id="Group 3">
<path id="Vector" d="M91.4174 107.714C65.6009 112.786 37.0589 112.021 13.262 100.477C8.70954 98.263 3.7606 95.2287 0.828113 91.1684C0.629163 90.8927 0.536353 90.5557 0.566264 90.2175C0.596176 89.8793 0.746859 89.562 0.991396 89.3223C1.67011 88.6633 2.37413 88.5623 3.10345 89.0194C23.9502 102.044 49.6285 106.194 74.3428 103.855C86.6641 102.69 99.0572 100.121 111.522 96.1481C123.634 92.2841 135.393 87.7253 146.799 82.4719C147.482 82.1614 148 82.3317 148.353 82.9829C148.388 83.0491 148.418 83.1158 148.442 83.1831C148.578 83.5878 148.574 84.026 148.429 84.4286C148.284 84.8313 148.008 85.1755 147.644 85.407C134.036 94.0143 120.185 100.285 106.092 104.221C101.163 105.595 96.2712 106.759 91.4174 107.714Z" fill="#FDC248"/>
<path id="Vector_2" d="M175.107 62.0671C175.065 61.572 174.802 61.3927 174.318 61.5291C166.069 63.9008 157.964 67.2295 149.063 67.5583C147.793 67.6006 147.044 67.0647 146.817 65.9506C146.737 65.5511 146.801 65.1365 146.998 64.779C147.196 64.4215 147.514 64.1436 147.897 63.9938C156.948 60.4725 165.681 57.7853 174.096 55.9324C179.651 54.7099 183.702 57.132 180.222 63.0605C177.774 67.2254 175.053 71.2431 172.06 75.1136C164.455 84.9405 157.117 93.2822 150.046 100.139C149.823 100.354 149.531 100.485 149.22 100.51C148.226 100.588 147.758 100.402 147.815 99.9524C147.953 98.8443 148.322 97.9318 148.923 97.2147C158.624 85.6908 167.194 75.1887 174.813 63.2201C175.046 62.862 175.144 62.4776 175.107 62.0671Z" fill="#FDC248"/>
</g>
</svg>
