<svg width="15" height="15" viewBox="0 0 15 15" fill="none" xmlns="http://www.w3.org/2000/svg">
<path id="Vector" d="M14.3602 1.07407L14.6267 1.34054C14.6409 5.67652 14.6451 10.0359 14.6395 14.4188C14.6395 14.5382 14.5798 14.6363 14.5403 14.746L14.3805 14.9059C14.2749 14.9368 14.179 14.9965 14.066 14.9965C9.67818 15.0029 5.31662 14.9979 0.981353 14.9816L0.734071 14.7343C0.537949 14.1204 0.799089 13.7846 1.38319 13.7868C5.366 13.7988 9.05428 13.7999 12.448 13.79C12.5134 13.79 12.5233 13.7665 12.4779 13.7196C8.1625 9.34739 4.30226 5.48004 0.897149 2.11756C0.624285 1.84754 0.573834 1.55976 0.745795 1.2542L0.924862 1.07514C1.22046 0.940127 1.45247 0.956826 1.62088 1.12523C5.54543 5.04978 9.4586 8.96225 13.3604 12.8626C13.4137 12.9159 13.44 12.9053 13.4393 12.8307C13.4372 9.18751 13.4364 5.45979 13.4372 1.64751C13.4372 1.12097 13.8646 0.876885 14.3602 1.07407Z" fill="black"/>
</svg>
