<svg width="264" height="141" viewBox="0 0 264 141" fill="none" xmlns="http://www.w3.org/2000/svg">
<path d="M263.884 124.273L246.562 31.5272C246.266 29.9984 245.459 28.6155 244.274 27.6055C243.088 26.5954 241.595 26.0181 240.038 25.9682C239.898 25.965 239.758 25.965 239.618 25.9682L227.818 26.3915L226.548 26.4381L220.659 26.6498L219.389 26.6934L215.601 26.8303L139.219 29.5725C139.103 29.5788 138.985 29.5788 138.87 29.5756L121.754 29.2177L115.42 29.087L115.217 29.0839L110.542 28.9843L69.8047 28.1376L59.004 27.9104L53.6784 27.8015L52.4022 27.7735L46.3296 27.649L45.0565 27.621L38.8438 27.4933L37.5707 27.4653L30.7448 27.3221L29.6741 27.3003L23.5859 27.1727L22.6241 27.1541H22.484C20.8677 27.1606 19.3058 27.7384 18.0744 28.7853C16.8429 29.8322 16.0213 31.2808 15.7546 32.875L0.0889573 129.116C-0.0701294 130.091 -0.0153676 131.089 0.249449 132.041C0.514266 132.992 0.982797 133.875 1.6226 134.628C2.26241 135.38 3.05819 135.985 3.9548 136.399C4.85142 136.814 5.82744 137.029 6.81525 137.028H96.7815C98.1056 137.032 99.3943 137.457 100.461 138.242L102.166 139.506C103.342 140.371 104.762 140.84 106.222 140.844H159.242C160.138 140.847 161.025 140.671 161.853 140.328C162.68 139.985 163.432 139.482 164.063 138.846C165.143 137.766 166.585 137.125 168.11 137.044L257.54 132.331C258.51 132.281 259.458 132.023 260.32 131.577C261.182 131.13 261.939 130.504 262.54 129.741C263.141 128.978 263.571 128.095 263.803 127.152C264.035 126.209 264.062 125.228 263.884 124.273Z" fill="#CCCCCC"/>
<path d="M249.709 121.752L240.054 26.0927C240.051 26.0523 240.045 26.0087 240.038 25.9682C239.858 24.4398 239.103 23.037 237.928 22.0433L217.158 4.7404C216.255 3.98224 215.132 3.53383 213.955 3.46111C204.452 2.85104 156.142 0.591297 138.31 16.0702C137.769 16.5411 137.131 16.8876 136.442 17.0855C135.752 17.2834 135.028 17.3278 134.319 17.2156C133.609 17.1004 132.933 16.8334 132.335 16.4326C131.738 16.0319 131.234 15.5069 130.858 14.8936C129.342 12.5303 127.355 10.5045 125.022 8.94238C123.974 8.21497 122.883 7.5528 121.754 6.95966C120.755 6.43363 119.668 5.92316 118.486 5.43138C117.468 5.00806 116.382 4.60031 115.217 4.21124C109.182 2.19429 101.114 0.687792 90.3323 0.183554C85.8595 -0.0281027 80.9977 -0.0561092 75.8837 0.0964045C71.2148 0.23336 66.2533 0.516595 61.1394 0.939905L61.0647 0.943021L26.462 22.0681C25.6863 22.5518 25.0307 23.2055 24.5448 23.9799C24.059 24.7542 23.7556 25.6289 23.6576 26.5378L23.586 27.1728L12.5985 125.347C12.5036 126.181 12.5803 127.026 12.8239 127.829C13.0674 128.633 13.4727 129.378 14.0148 130.019C14.5425 130.644 15.1995 131.147 15.9406 131.493C16.6817 131.839 17.4891 132.02 18.307 132.023H103.567C104.701 132.029 105.799 132.419 106.683 133.128L110.405 136.11C111.375 136.889 112.576 137.325 113.82 137.349L151.308 137.962H151.398C152.345 137.961 153.276 137.719 154.103 137.259L161.334 133.244C161.993 132.876 162.727 132.663 163.481 132.621L244.284 128.354C245.072 128.312 245.841 128.104 246.543 127.745C247.245 127.386 247.864 126.882 248.358 126.268C248.872 125.643 249.257 124.922 249.489 124.146C249.721 123.371 249.796 122.557 249.709 121.752Z" fill="#E6E6E6"/>
<path d="M221.505 104.501L220.374 89.6116L215.602 26.8322L214.893 17.545C214.714 15.1057 213.632 12.8205 211.86 11.1351C210.087 9.44966 207.751 8.48473 205.305 8.42842C187.822 7.97955 156.163 8.76957 140.627 19.1789C138.899 20.3535 136.803 20.86 134.73 20.604C132.656 20.348 130.746 19.347 129.356 17.7874C127.206 15.4275 124.625 13.5001 121.752 12.1092C119.649 11.0546 117.463 10.1749 115.216 9.47878C108.64 7.37805 100.342 6.10176 90.3219 5.64989L66.5406 5.51074H66.5002C64.8528 5.51227 63.2677 6.14094 62.0672 7.269C60.8666 8.39705 60.1405 9.93988 60.0364 11.584L59.004 27.9095L54.4928 99.5048C54.4084 100.839 54.596 102.176 55.044 103.435C55.4921 104.694 56.1913 105.849 57.0993 106.829C58.0073 107.81 59.1051 108.596 60.326 109.139C61.547 109.683 62.8656 109.972 64.2019 109.99C104.12 110.583 121.559 119.008 129.163 125.966C130.78 127.449 132.845 128.351 135.032 128.528C137.219 128.705 139.403 128.148 141.238 126.944C155.04 117.904 177.987 115.39 196.251 115C201.844 114.883 206.998 114.96 211.316 115.112C212.704 115.162 214.086 114.918 215.373 114.397C216.661 113.876 217.823 113.088 218.785 112.087C219.747 111.085 220.486 109.891 220.955 108.584C221.424 107.277 221.611 105.885 221.505 104.501Z" fill="white"/>
<path d="M23.3339 125.267C23.319 125.267 23.3035 125.266 23.2886 125.265C23.2053 125.259 23.124 125.237 23.0493 125.2C22.9747 125.162 22.9081 125.111 22.8534 125.048C22.7986 124.985 22.7569 124.911 22.7305 124.832C22.704 124.753 22.6935 124.67 22.6993 124.586L29.5676 27.6061C29.5725 27.5225 29.5941 27.4407 29.631 27.3656C29.668 27.2905 29.7196 27.2235 29.7828 27.1686C29.8461 27.1137 29.9196 27.072 29.9992 27.0459C30.0788 27.0199 30.1628 27.01 30.2462 27.0169C30.3295 27.0228 30.4108 27.0449 30.4854 27.0822C30.5601 27.1195 30.6267 27.1711 30.6814 27.2342C30.7361 27.2972 30.7779 27.3703 30.8043 27.4495C30.8308 27.5287 30.8413 27.6123 30.8355 27.6955L23.9672 124.676C23.956 124.836 23.8844 124.986 23.7669 125.096C23.6494 125.206 23.4947 125.267 23.3339 125.267Z" fill="white"/>
<path d="M31.599 121.452C31.5841 121.452 31.5686 121.451 31.5537 121.45C31.4704 121.444 31.3892 121.422 31.3145 121.385C31.2398 121.348 31.1732 121.296 31.1185 121.233C31.0638 121.17 31.022 121.097 30.9956 121.018C30.9692 120.938 30.9586 120.855 30.9645 120.772L37.8327 23.7913C37.8376 23.7077 37.8592 23.6259 37.8962 23.5508C37.9331 23.4756 37.9847 23.4087 38.048 23.3538C38.1112 23.2989 38.1848 23.2572 38.2643 23.2311C38.3439 23.2051 38.4279 23.1952 38.5114 23.2021C38.5946 23.2079 38.6759 23.2301 38.7506 23.2674C38.8252 23.3047 38.8918 23.3563 38.9466 23.4193C39.0013 23.4824 39.043 23.5555 39.0695 23.6347C39.0959 23.7139 39.1065 23.7975 39.1006 23.8807L32.2323 120.861C32.2212 121.021 32.1496 121.171 32.0321 121.281C31.9145 121.391 31.7598 121.452 31.599 121.452Z" fill="white"/>
<path d="M39.2282 119.545C39.2133 119.545 39.1977 119.544 39.1828 119.543C39.0996 119.537 39.0183 119.515 38.9436 119.477C38.869 119.44 38.8024 119.388 38.7476 119.325C38.6929 119.262 38.6512 119.189 38.6247 119.11C38.5983 119.031 38.5877 118.947 38.5936 118.864L45.4619 21.8838C45.4668 21.8002 45.4883 21.7185 45.5253 21.6433C45.5623 21.5682 45.6139 21.5012 45.6771 21.4463C45.7403 21.3914 45.8139 21.3497 45.8935 21.3236C45.9731 21.2976 46.0571 21.2877 46.1405 21.2946C46.2238 21.3005 46.305 21.3227 46.3797 21.3599C46.4544 21.3972 46.521 21.4488 46.5757 21.5119C46.6304 21.5749 46.6722 21.6481 46.6986 21.7272C46.725 21.8064 46.7356 21.89 46.7297 21.9732L39.8615 118.953C39.8503 119.114 39.7787 119.264 39.6612 119.374C39.5437 119.483 39.3889 119.544 39.2282 119.545Z" fill="white"/>
<path d="M46.8581 115.73C46.8432 115.73 46.8276 115.729 46.8127 115.728C46.7295 115.722 46.6482 115.7 46.5735 115.663C46.4988 115.625 46.4322 115.574 46.3775 115.511C46.3228 115.448 46.2811 115.375 46.2546 115.295C46.2282 115.216 46.2176 115.133 46.2235 115.049L53.0918 18.0693C53.0967 17.9857 53.1182 17.9039 53.1552 17.8288C53.1922 17.7536 53.2438 17.6866 53.307 17.6317C53.3702 17.5768 53.4438 17.5351 53.5234 17.5091C53.603 17.483 53.687 17.4731 53.7704 17.48C53.8537 17.4859 53.9349 17.5081 54.0096 17.5454C54.0843 17.5827 54.1509 17.6343 54.2056 17.6973C54.2603 17.7603 54.3021 17.8335 54.3285 17.9127C54.3549 17.9918 54.3655 18.0754 54.3596 18.1587L47.4914 115.139C47.4802 115.299 47.4086 115.449 47.2911 115.559C47.1736 115.669 47.0188 115.73 46.8581 115.73Z" fill="white"/>
<path d="M242.044 125.903C242.059 125.903 242.074 125.902 242.089 125.901C242.173 125.895 242.254 125.873 242.328 125.836C242.403 125.798 242.47 125.747 242.524 125.684C242.579 125.621 242.621 125.547 242.647 125.468C242.674 125.389 242.684 125.306 242.678 125.222L235.81 28.2421C235.805 28.1585 235.784 28.0767 235.747 28.0016C235.71 27.9265 235.658 27.8595 235.595 27.8046C235.532 27.7497 235.458 27.708 235.379 27.6819C235.299 27.6559 235.215 27.646 235.132 27.6529C235.048 27.6587 234.967 27.6809 234.892 27.7182C234.818 27.7555 234.751 27.8071 234.696 27.8701C234.642 27.9331 234.6 28.0063 234.573 28.0855C234.547 28.1647 234.536 28.2483 234.542 28.3315L241.411 125.312C241.422 125.472 241.493 125.622 241.611 125.732C241.728 125.842 241.883 125.903 242.044 125.903Z" fill="white"/>
<path d="M233.779 120.181C233.794 120.181 233.809 120.18 233.824 120.179C233.907 120.173 233.989 120.151 234.063 120.113C234.138 120.076 234.205 120.024 234.259 119.961C234.314 119.898 234.356 119.825 234.382 119.746C234.409 119.667 234.419 119.583 234.413 119.5L227.545 22.5198C227.54 22.4362 227.519 22.3545 227.482 22.2793C227.445 22.2042 227.393 22.1372 227.33 22.0823C227.267 22.0274 227.193 21.9857 227.113 21.9596C227.034 21.9336 226.95 21.9237 226.866 21.9306C226.783 21.9364 226.702 21.9586 226.627 21.9959C226.553 22.0332 226.486 22.0848 226.431 22.1479C226.377 22.2109 226.335 22.284 226.308 22.3632C226.282 22.4424 226.271 22.526 226.277 22.6092L233.145 119.589C233.157 119.75 233.228 119.9 233.346 120.01C233.463 120.119 233.618 120.18 233.779 120.181Z" fill="white"/>
<path d="M226.149 113.823C226.164 113.823 226.18 113.822 226.195 113.821C226.278 113.815 226.359 113.793 226.434 113.755C226.509 113.718 226.575 113.667 226.63 113.604C226.685 113.54 226.726 113.467 226.753 113.388C226.779 113.309 226.79 113.225 226.784 113.142L219.916 16.1619C219.911 16.0783 219.889 15.9965 219.852 15.9214C219.815 15.8463 219.764 15.7793 219.7 15.7244C219.637 15.6695 219.564 15.6278 219.484 15.6017C219.404 15.5757 219.321 15.5658 219.237 15.5727C219.154 15.5785 219.072 15.6007 218.998 15.638C218.923 15.6753 218.857 15.7269 218.802 15.7899C218.747 15.853 218.705 15.9261 218.679 16.0053C218.653 16.0845 218.642 16.1681 218.648 16.2513L225.516 113.232C225.527 113.392 225.599 113.542 225.716 113.652C225.834 113.761 225.989 113.823 226.149 113.823Z" fill="white"/>
<path d="M70.1205 27.4186C84.4517 22.8462 100.44 24.0567 114.017 30.4982C117.891 32.3266 121.549 34.58 124.925 37.2168C125.88 37.9663 127.239 36.6256 126.274 35.8681C113.804 26.1959 98.1355 21.6012 82.4168 23.0071C78.0681 23.3962 73.7749 24.2588 69.6134 25.5793C68.4484 25.951 68.9464 27.7932 70.1205 27.4186Z" fill="#3F3D56"/>
<path d="M148.98 37.9567C162.305 30.9533 178.26 29.4261 192.747 33.4015C196.878 34.5322 200.869 36.1192 204.648 38.1332C205.73 38.7109 206.695 37.0649 205.611 36.4862C191.803 29.1188 175.229 27.4228 160.151 31.5297C155.945 32.6774 151.877 34.2803 148.018 36.3098C146.931 36.8811 147.894 38.5279 148.98 37.9567Z" fill="#3F3D56"/>
<path d="M148.98 50.6724C162.305 43.669 178.26 42.1418 192.747 46.1172C196.878 47.2479 200.869 48.8349 204.648 50.8489C205.73 51.4266 206.695 49.7806 205.611 49.2019C191.803 41.8345 175.229 40.1385 160.151 44.2454C155.945 45.3931 151.877 46.9959 148.018 49.0254C146.931 49.5968 147.894 51.2436 148.98 50.6724Z" fill="#3F3D56"/>
<path d="M149.132 62.8816C162.456 55.8782 178.412 54.351 192.899 58.3264C197.029 59.4571 201.02 61.0441 204.799 63.0581C205.882 63.6358 206.846 61.9899 205.762 61.4112C191.955 54.0437 175.38 52.3477 160.303 56.4546C156.096 57.6023 152.028 59.2052 148.169 61.2347C147.082 61.806 148.045 63.4528 149.132 62.8816Z" fill="#3F3D56"/>
<path d="M149.132 62.8816C162.456 55.8782 178.412 54.351 192.899 58.3264C197.029 59.4571 201.02 61.0441 204.799 63.0581C205.882 63.6358 206.846 61.9899 205.762 61.4112C191.955 54.0437 175.38 52.3477 160.303 56.4546C156.096 57.6023 152.028 59.2052 148.169 61.2347C147.082 61.806 148.045 63.4528 149.132 62.8816Z" fill="#3F3D56"/>
<path d="M149.132 62.8816C162.456 55.8782 178.412 54.351 192.899 58.3264C197.029 59.4571 201.02 61.0441 204.799 63.0581C205.882 63.6358 206.846 61.9899 205.762 61.4112C191.955 54.0437 175.38 52.3477 160.303 56.4546C156.096 57.6023 152.028 59.2052 148.169 61.2347C147.082 61.806 148.045 63.4528 149.132 62.8816Z" fill="#3F3D56"/>
<path d="M149.132 73.9583C162.456 66.9549 178.412 65.4277 192.899 69.4031C197.029 70.5338 201.02 72.1208 204.799 74.1348C205.882 74.7125 206.846 73.0665 205.762 72.4878C191.955 65.1204 175.38 63.4243 160.303 67.5313C156.096 68.679 152.028 70.2818 148.169 72.3113C147.082 72.8827 148.045 74.5295 149.132 73.9583Z" fill="#3F3D56"/>
<path d="M149.132 73.9583C162.456 66.9549 178.412 65.4277 192.899 69.4031C197.029 70.5338 201.02 72.1208 204.799 74.1348C205.882 74.7125 206.846 73.0665 205.762 72.4878C191.955 65.1204 175.38 63.4243 160.303 67.5313C156.096 68.679 152.028 70.2818 148.169 72.3113C147.082 72.8827 148.045 74.5295 149.132 73.9583Z" fill="#3F3D56"/>
<path d="M149.132 86.8812C162.456 79.8777 178.412 78.3505 192.899 82.326C197.029 83.4566 201.02 85.0436 204.799 87.0576C205.882 87.6353 206.846 85.9894 205.762 85.4107C191.955 78.0432 175.38 76.3472 160.303 80.4541C156.096 81.6019 152.028 83.2047 148.169 85.2342C147.082 85.8055 148.045 87.4523 149.132 86.8812Z" fill="#3F3D56"/>
<path d="M149.132 99.8039C162.456 92.8005 178.412 91.2733 192.899 95.2487C197.029 96.3794 201.02 97.9664 204.799 99.9804C205.882 100.558 206.846 98.9121 205.762 98.3334C191.955 90.9659 175.38 89.2699 160.303 93.3769C156.096 94.5246 152.028 96.1274 148.169 98.1569C147.082 98.7282 148.045 100.375 149.132 99.8039Z" fill="#3F3D56"/>
<path d="M206.084 83.1267V83.4192C205.455 82.6817 204.813 81.9505 204.177 81.2194C203.91 80.9142 203.643 80.609 203.376 80.3039C202.244 79.0196 201.106 77.7395 199.961 76.4637C198.811 75.1921 197.66 73.9205 196.496 72.6553C196.217 72.3501 195.937 72.045 195.651 71.7398C195.422 71.4834 195.173 71.2452 194.907 71.0277C194.638 70.8042 194.33 70.6338 193.998 70.5254C193.616 70.4195 193.212 70.4151 192.828 70.5127C192.389 70.6145 191.97 70.7734 191.544 70.9069C191.105 71.0531 190.673 71.193 190.234 71.3328C189.356 71.619 188.485 71.9051 187.608 72.1912C187.597 72.1956 187.586 72.1978 187.574 72.1976C187.562 72.1974 187.551 72.1948 187.54 72.1901C187.529 72.1853 187.52 72.1785 187.512 72.1699C187.504 72.1614 187.498 72.1513 187.494 72.1403C187.489 72.1283 187.486 72.1153 187.487 72.1022C187.488 72.0892 187.491 72.0765 187.497 72.065C187.503 72.0534 187.512 72.0434 187.522 72.0355C187.532 72.0277 187.544 72.0222 187.557 72.0196C187.773 71.9496 187.996 71.8797 188.218 71.8097C189.102 71.5172 189.979 71.2312 190.863 70.9451C191.302 70.7988 191.741 70.659 192.179 70.5191C192.586 70.3646 193.016 70.2786 193.451 70.2648C194.161 70.3158 194.827 70.6285 195.32 71.1422C195.594 71.3965 195.842 71.6635 196.089 71.9369C196.382 72.2548 196.674 72.5727 196.967 72.8906C198.143 74.1749 199.311 75.4634 200.47 76.7561C201.634 78.0532 202.786 79.3523 203.929 80.6535C204.011 80.7489 204.094 80.8443 204.177 80.9397C204.819 81.6644 205.448 82.3956 206.084 83.1267Z" fill="white"/>
<path d="M161.664 62.5385C160.981 62.2414 160.237 62.1111 159.493 62.1584C158.75 62.2057 158.028 62.4293 157.388 62.8106C159.724 63.1691 162.04 63.6502 164.326 64.252C163.38 63.7583 162.639 62.9848 161.664 62.5385Z" fill="white"/>
<path d="M157.375 62.8085L157.118 62.9946C157.205 62.9294 157.295 62.8684 157.388 62.8106L157.375 62.8085Z" fill="white"/>
<path d="M194.808 72.1991C194.568 71.8897 194.248 71.6518 193.882 71.5111L193.521 71.5238C196.359 75.9394 200.076 79.7225 204.442 82.6368C201.231 79.1576 198.019 75.6784 194.808 72.1991Z" fill="white"/>
<path d="M165.122 63.888C165.019 63.7863 164.917 63.6845 164.814 63.5828C164.023 62.7215 163.07 62.0242 162.009 61.5304C161.47 61.303 160.89 61.1835 160.305 61.1786C159.699 61.1928 159.101 61.3089 158.535 61.5223C158.268 61.617 158.007 61.7246 157.751 61.8391C157.457 61.9705 157.169 62.1106 156.883 62.2519C156.344 62.5171 155.813 62.7938 155.289 63.0822C154.246 63.6561 153.235 64.2737 152.257 64.9352C151.75 65.2782 151.254 65.6325 150.768 65.998C150.316 66.3375 149.873 66.6862 149.439 67.044C149.347 67.1201 149.208 66.9969 149.301 66.9207C149.415 66.8259 149.531 66.7317 149.646 66.6387C149.973 66.3759 150.305 66.1182 150.642 65.8654C151.257 65.4038 151.887 64.96 152.534 64.534C153.539 63.8712 154.579 63.2533 155.653 62.6804C156.19 62.3944 156.735 62.1203 157.286 61.8583C157.453 61.7792 157.621 61.7019 157.792 61.6287C158.181 61.4541 158.583 61.3085 158.994 61.1932C159.583 61.0243 160.199 60.9704 160.809 61.0344C161.393 61.1089 161.959 61.2834 162.484 61.5502C163.523 62.1327 164.461 62.8805 165.26 63.7642C165.344 63.8479 165.206 63.9718 165.122 63.888Z" fill="white"/>
<path d="M70.1205 40.1342C84.4517 35.5618 100.44 36.7723 114.017 43.2138C117.891 45.0422 121.549 47.2956 124.925 49.9324C125.88 50.6819 127.239 49.3412 126.274 48.5837C113.804 38.9115 98.1355 34.3168 82.4168 35.7227C78.0681 36.1118 73.7749 36.9743 69.6134 38.2949C68.4484 38.6666 68.9464 40.5088 70.1205 40.1342Z" fill="#3F3D56"/>
<path d="M70.1205 52.8501C84.4517 48.2777 100.44 49.4883 114.017 55.9297C117.891 57.7581 121.549 60.0115 124.925 62.6483C125.88 63.3978 127.239 62.0572 126.274 61.2996C113.804 51.6274 98.1355 47.0327 82.4168 48.4386C78.0681 48.8277 73.7749 49.6903 69.6134 51.0109C68.4484 51.3825 68.9464 53.2247 70.1205 52.8501Z" fill="#3F3D56"/>
<path d="M70.1205 65.5659C84.4517 60.9936 100.44 62.2041 114.017 68.6456C117.891 70.474 121.549 72.7273 124.925 75.3642C125.88 76.1137 127.239 74.773 126.274 74.0154C113.804 64.3433 98.1355 59.7485 82.4168 61.1544C78.0681 61.5436 73.7749 62.4061 69.6134 63.7267C68.4484 64.0983 68.9464 65.9405 70.1205 65.5659Z" fill="#3F3D56"/>
<path d="M70.1205 78.2816C84.4517 73.7093 100.44 74.9198 114.017 81.3613C117.891 83.1897 121.549 85.443 124.925 88.0798C125.88 88.8293 127.239 87.4887 126.274 86.7311C113.804 77.059 98.1355 72.4642 82.4168 73.8701C78.0681 74.2593 73.7749 75.1218 69.6134 76.4424C68.4484 76.814 68.9464 78.6562 70.1205 78.2816Z" fill="#3F3D56"/>
<path d="M70.1205 90.9974C84.4517 86.4251 100.44 87.6356 114.017 94.0771C117.891 95.9055 121.549 98.1588 124.925 100.796C125.88 101.545 127.239 100.205 126.274 99.447C113.804 89.7748 98.1355 85.1801 82.4168 86.5859C78.0681 86.9751 73.7749 87.8376 69.6134 89.1582C68.4484 89.5299 68.9464 91.372 70.1205 90.9974Z" fill="#3F3D56"/>
<path d="M121.754 6.9595V42.5986C121.754 43.2056 120.695 43.713 119.267 43.8499C119.018 43.8748 118.756 43.8872 118.486 43.8872C117.699 43.9022 116.917 43.7746 116.176 43.5106C116.039 43.4573 115.905 43.3938 115.778 43.3207C115.423 43.1122 115.217 42.8663 115.217 42.5986V4.21106C116.381 4.60013 117.468 5.00789 118.486 5.43121C119.668 5.92301 120.755 6.43348 121.754 6.9595Z" fill="#FDC248"/>
<path d="M135.453 19.1796H134.519V134.464H135.453V19.1796Z" fill="#E6E6E6"/>
<path d="M218.79 112.082C217.827 113.084 216.664 113.872 215.376 114.394C214.088 114.916 212.705 115.161 211.316 115.112C206.998 114.96 201.845 114.883 196.252 115L196.22 114.973L220.459 83.5519L221.505 104.501C221.61 105.884 221.422 107.274 220.954 108.581C220.487 109.887 219.749 111.08 218.79 112.082Z" fill="#F2F2F2"/>
</svg>
