<svg width="295" height="163" viewBox="0 0 295 163" fill="none" xmlns="http://www.w3.org/2000/svg">
<g clip-path="url(#clip0_55_1015)">
<path d="M187.738 139.665H25.313C24.3623 139.664 23.4508 139.286 22.7786 138.614C22.1063 137.943 21.7281 137.032 21.7271 136.082V41.6206C21.7281 40.6708 22.1063 39.7602 22.7785 39.0886C23.4508 38.417 24.3623 38.0393 25.313 38.0382H187.738C188.688 38.0393 189.6 38.4171 190.272 39.0887C190.944 39.7603 191.323 40.6708 191.324 41.6206V136.082C191.323 137.032 190.944 137.943 190.272 138.614C189.6 139.286 188.688 139.664 187.738 139.665Z" fill="#E6E6E6"/>
<path d="M197.863 152.885H15.1877V32.1379C15.189 31.0764 15.6116 30.0587 16.363 29.3081C17.1143 28.5575 18.133 28.1352 19.1956 28.134H193.855C194.917 28.1352 195.936 28.5575 196.688 29.3081C197.439 30.0587 197.862 31.0764 197.863 32.1379V152.885ZM16.0315 152.042H197.019V32.1379C197.018 31.2998 196.684 30.4964 196.091 29.9038C195.498 29.3112 194.694 28.9779 193.855 28.9769H19.1956C18.3567 28.9779 17.5525 29.3112 16.9593 29.9038C16.3661 30.4964 16.0324 31.2998 16.0315 32.1379V152.042Z" fill="#CCCCCC"/>
<path d="M106.525 35.0881C107.457 35.0881 108.213 34.3333 108.213 33.4023C108.213 32.4712 107.457 31.7164 106.525 31.7164C105.593 31.7164 104.838 32.4712 104.838 33.4023C104.838 34.3333 105.593 35.0881 106.525 35.0881Z" fill="#E6E6E6"/>
<path d="M147.237 119.618H65.8135C64.8628 119.617 63.9513 119.239 63.2791 118.568C62.6068 117.896 62.2286 116.985 62.2275 116.036V61.6678C62.2286 60.7181 62.6068 59.8075 63.2791 59.1359C63.9513 58.4643 64.8628 58.0865 65.8135 58.0854H147.237C148.188 58.0866 149.099 58.4644 149.771 59.136C150.444 59.8075 150.822 60.7181 150.823 61.6678V116.036C150.822 116.985 150.444 117.896 149.771 118.568C149.099 119.239 148.188 119.617 147.237 119.618Z" fill="white"/>
<path d="M79.2083 81.2653C78.5408 81.2653 77.8883 81.0675 77.3332 80.697C76.7782 80.3265 76.3456 79.8 76.0902 79.1839C75.8347 78.5678 75.7679 77.8899 75.8981 77.2358C76.0283 76.5818 76.3498 75.981 76.8218 75.5095C77.2938 75.038 77.8952 74.7169 78.5499 74.5868C79.2046 74.4567 79.8832 74.5234 80.4999 74.7786C81.1166 75.0338 81.6437 75.466 82.0146 76.0204C82.3854 76.5749 82.5834 77.2268 82.5834 77.8936C82.5823 78.7875 82.2264 79.6445 81.5937 80.2766C80.961 80.9087 80.1031 81.2642 79.2083 81.2653Z" fill="#CCCCCC"/>
<path d="M79.2083 92.2232C78.5408 92.2232 77.8883 92.0254 77.3332 91.6549C76.7782 91.2844 76.3456 90.7579 76.0902 90.1418C75.8347 89.5257 75.7679 88.8478 75.8981 88.1937C76.0283 87.5397 76.3498 86.9389 76.8218 86.4674C77.2938 85.9958 77.8952 85.6747 78.5499 85.5447C79.2046 85.4146 79.8832 85.4813 80.4999 85.7365C81.1166 85.9917 81.6437 86.4238 82.0146 86.9783C82.3854 87.5328 82.5834 88.1847 82.5834 88.8515C82.5823 89.7454 82.2264 90.6024 81.5937 91.2345C80.961 91.8666 80.1031 92.2221 79.2083 92.2232Z" fill="#FDC248"/>
<path d="M79.2083 103.181C78.5408 103.181 77.8883 102.983 77.3332 102.613C76.7782 102.242 76.3456 101.716 76.0902 101.1C75.8347 100.484 75.7679 99.8056 75.8981 99.1516C76.0283 98.4976 76.3498 97.8968 76.8218 97.4253C77.2938 96.9537 77.8952 96.6326 78.5499 96.5025C79.2046 96.3724 79.8832 96.4392 80.4999 96.6944C81.1166 96.9496 81.6437 97.3817 82.0146 97.9362C82.3854 98.4907 82.5834 99.1425 82.5834 99.8094C82.5823 100.703 82.2264 101.56 81.5937 102.192C80.961 102.824 80.1031 103.18 79.2083 103.181Z" fill="#FDC248"/>
<path d="M95.2398 75.1542C94.5125 75.1542 93.815 75.4428 93.3007 75.9565C92.7865 76.4703 92.4976 77.1671 92.4976 77.8936C92.4976 78.6202 92.7865 79.317 93.3007 79.8307C93.815 80.3445 94.5125 80.6331 95.2398 80.6331H134.475C135.202 80.6331 135.9 80.3445 136.414 79.8307C136.928 79.317 137.217 78.6202 137.217 77.8936C137.217 77.1671 136.928 76.4703 136.414 75.9565C135.9 75.4428 135.202 75.1542 134.475 75.1542H95.2398Z" fill="#CCCCCC"/>
<path d="M95.2398 86.1121C94.5125 86.1121 93.815 86.4007 93.3007 86.9144C92.7865 87.4282 92.4976 88.125 92.4976 88.8515C92.4976 89.5781 92.7865 90.2749 93.3007 90.7886C93.815 91.3024 94.5125 91.591 95.2398 91.591H134.475C135.202 91.591 135.9 91.3024 136.414 90.7886C136.928 90.2749 137.217 89.5781 137.217 88.8515C137.217 88.125 136.928 87.4282 136.414 86.9144C135.9 86.4007 135.202 86.1121 134.475 86.1121H95.2398Z" fill="#FDC248"/>
<path d="M95.2398 97.0698C94.5125 97.0698 93.815 97.3584 93.3007 97.8722C92.7865 98.3859 92.4976 99.0827 92.4976 99.8093C92.4976 100.536 92.7865 101.233 93.3007 101.746C93.815 102.26 94.5125 102.549 95.2398 102.549H134.475C135.202 102.549 135.9 102.26 136.414 101.746C136.928 101.233 137.217 100.536 137.217 99.8093C137.217 99.0827 136.928 98.3859 136.414 97.8722C135.9 97.3584 135.202 97.0698 134.475 97.0698H95.2398Z" fill="#FDC248"/>
<path d="M279.83 158.184L274.658 158.098L272.532 138.129L280.165 138.258L279.83 158.184Z" fill="#FFB8B8"/>
<path d="M270.989 156.559L280.963 156.727L280.857 163L264.604 162.727C264.618 161.903 264.794 161.09 265.122 160.334C265.451 159.579 265.925 158.895 266.518 158.322C267.111 157.749 267.811 157.299 268.578 156.996C269.345 156.694 270.164 156.545 270.989 156.559Z" fill="#959595"/>
<path d="M228.509 158.137L223.714 156.198L228.918 136.802L235.994 139.664L228.509 158.137Z" fill="#FFB8B8"/>
<path d="M220.844 153.445L230.09 157.184L227.734 163L212.666 156.907C213.291 155.364 214.504 154.133 216.038 153.484C217.571 152.835 219.3 152.821 220.844 153.445Z" fill="#959595"/>
<path d="M245.795 83.4169L230.607 123.455L224.279 151.271L231.029 154.643L261.826 94.7962L273.217 154.854H279.967C279.967 154.854 283.054 83.6215 278.557 78.0403L245.795 83.4169Z" fill="#928CFF"/>
<path d="M226.966 127.254C233.53 127.254 238.851 121.938 238.851 115.38C238.851 108.823 233.53 103.507 226.966 103.507C220.402 103.507 215.081 108.823 215.081 115.38C215.081 121.938 220.402 127.254 226.966 127.254Z" fill="#FDC248"/>
<path d="M225.975 120.63L222.203 115.785L224.397 114.081L226.183 116.375L232.217 110.012L234.235 111.921L225.975 120.63Z" fill="white"/>
<path d="M253.178 27.9954C260.867 27.9954 267.1 21.7686 267.1 14.0874C267.1 6.40617 260.867 0.179321 253.178 0.179321C245.489 0.179321 239.256 6.40617 239.256 14.0874C239.256 21.7686 245.489 27.9954 253.178 27.9954Z" fill="white"/>
<path d="M233.748 108.729C234.341 108.434 234.863 108.013 235.275 107.495C235.688 106.977 235.982 106.375 236.136 105.731C236.291 105.088 236.302 104.418 236.17 103.77C236.037 103.121 235.764 102.509 235.369 101.978L245.93 43.5893L236.075 43.4596L228.741 101.198C227.891 101.92 227.335 102.928 227.18 104.032C227.024 105.135 227.279 106.257 227.896 107.186C228.513 108.114 229.45 108.784 230.529 109.068C231.607 109.353 232.753 109.232 233.748 108.729Z" fill="#FFB8B8"/>
<path d="M294.267 97.3246C294.639 96.7579 294.879 96.1151 294.97 95.4434C295.06 94.7718 294.998 94.0884 294.789 93.4437C294.58 92.799 294.229 92.2094 293.761 91.7184C293.294 91.2274 292.722 90.8475 292.087 90.6067L273.229 44.845C272.767 43.725 272.067 42.719 271.177 41.8968C270.287 41.0747 269.228 40.4562 268.074 40.0843C266.92 39.7125 265.699 39.5962 264.496 39.7436C263.292 39.8911 262.136 40.2986 261.106 40.938L286.084 93.5193C285.762 94.5696 285.831 95.7007 286.279 96.7041C286.726 97.7074 287.521 98.5153 288.518 98.9789C289.515 99.4424 290.646 99.5302 291.702 99.2262C292.759 98.9222 293.67 98.2468 294.267 97.3246Z" fill="#FFB8B8"/>
<path d="M253.453 29.6787C259.176 29.6787 263.815 25.0443 263.815 19.3274C263.815 13.6104 259.176 8.97595 253.453 8.97595C247.731 8.97595 243.092 13.6104 243.092 19.3274C243.092 25.0443 247.731 29.6787 253.453 29.6787Z" fill="#FFB8B8"/>
<path d="M240.854 35.6943C246.83 33.2088 257.148 30.7523 268.605 36.1064C269.946 36.7308 271.139 37.6314 272.107 38.749C273.075 39.8666 273.795 41.1761 274.221 42.5914L279.123 58.9725L272.795 65.2944L278.701 78.3595C278.701 78.3595 256.131 92.0568 246.006 83.6277L239.888 61.9227L231.873 59.8154L234.607 43.5848C234.896 41.8493 235.62 40.2153 236.712 38.8354C237.805 37.4555 239.23 36.3748 240.854 35.6943Z" fill="#CCCCCC"/>
<path d="M243.762 11.6724C247.809 14.1401 252.371 15.6418 257.093 16.0605L255.688 14.3785C256.711 14.7564 257.788 14.97 258.878 15.0113C259.424 15.0271 259.965 14.9149 260.46 14.6836C260.954 14.4524 261.388 14.1086 261.725 13.6798C262.001 13.2346 262.165 12.7293 262.202 12.2072C262.24 11.685 262.151 11.1615 261.943 10.6812C261.515 9.72317 260.848 8.89057 260.007 8.26263C258.515 7.08406 256.755 6.29239 254.883 5.95818C253.011 5.62396 251.086 5.75759 249.278 6.34714C248.038 6.71735 246.927 7.42901 246.074 8.40057C245.654 8.88998 245.362 9.47584 245.225 10.1056C245.088 10.7353 245.109 11.3892 245.288 12.0086" fill="white"/>
<path d="M241.824 2.46171C241.655 0.691599 239.485 -0.398155 237.787 0.136542C236.09 0.671239 234.975 2.37873 234.638 4.1247C234.476 4.86 234.461 5.62003 234.594 6.36123C234.726 7.10242 235.004 7.8102 235.411 8.44397C235.831 9.06971 236.423 9.56163 237.115 9.86128C237.808 10.1609 238.572 10.2557 239.316 10.1343C240.995 9.7768 242.158 8.13915 242.491 6.45685C242.824 4.77456 242.493 3.04013 242.163 1.35728" fill="white"/>
<path d="M270.512 3.30461C270.343 1.53449 268.173 0.44474 266.475 0.979437C264.778 1.51413 263.663 3.22163 263.326 4.96759C263.164 5.70289 263.149 6.46293 263.282 7.20412C263.414 7.94531 263.692 8.65309 264.099 9.28686C264.519 9.9126 265.111 10.4045 265.803 10.7042C266.496 11.0038 267.26 11.0986 268.004 10.9772C269.683 10.6197 270.846 8.98204 271.179 7.29975C271.512 5.61746 271.181 3.88303 270.851 2.20018" fill="white"/>
<path d="M201.027 147.406H193.644V146.142C193.644 145.695 193.466 145.266 193.15 144.95C192.833 144.634 192.404 144.456 191.956 144.456H183.097C182.649 144.456 182.22 144.634 181.904 144.95C181.587 145.266 181.409 145.695 181.409 146.142V147.406H180.144V146.142C180.144 145.695 179.966 145.266 179.649 144.95C179.333 144.634 178.904 144.456 178.456 144.456H169.597C169.149 144.456 168.72 144.634 168.403 144.95C168.087 145.266 167.909 145.695 167.909 146.142V147.406H166.643V146.142C166.643 145.695 166.466 145.266 166.149 144.95C165.833 144.634 165.404 144.456 164.956 144.456H156.096C155.649 144.456 155.22 144.634 154.903 144.95C154.587 145.266 154.409 145.695 154.409 146.142V147.406H153.143V146.142C153.143 145.695 152.965 145.266 152.649 144.95C152.333 144.634 151.903 144.456 151.456 144.456H142.596C142.149 144.456 141.719 144.634 141.403 144.95C141.086 145.266 140.909 145.695 140.909 146.142V147.406H139.643V146.142C139.643 145.695 139.465 145.266 139.149 144.95C138.832 144.634 138.403 144.456 137.955 144.456H129.096C128.648 144.456 128.219 144.634 127.903 144.95C127.586 145.266 127.408 145.695 127.408 146.142V147.406H126.143V146.142C126.143 145.695 125.965 145.266 125.649 144.95C125.332 144.634 124.903 144.456 124.455 144.456H115.596C115.148 144.456 114.719 144.634 114.402 144.95C114.086 145.266 113.908 145.695 113.908 146.142V147.406H112.643V146.142C112.643 145.695 112.465 145.266 112.148 144.95C111.832 144.634 111.403 144.456 110.955 144.456H102.096C101.648 144.456 101.219 144.634 100.902 144.95C100.586 145.266 100.408 145.695 100.408 146.142V147.406H99.1423V146.142C99.1423 145.695 98.9645 145.266 98.6481 144.95C98.3316 144.634 97.9024 144.456 97.4548 144.456H88.5953C88.1477 144.456 87.7185 144.634 87.402 144.95C87.0855 145.266 86.9077 145.695 86.9077 146.142V147.406H85.6421V146.142C85.6421 145.695 85.4643 145.266 85.1478 144.95C84.8314 144.634 84.4021 144.456 83.9546 144.456H75.095C74.6475 144.456 74.2182 144.634 73.9018 144.95C73.5853 145.266 73.4075 145.695 73.4075 146.142V147.406H72.1419V146.142C72.1419 145.695 71.9641 145.266 71.6476 144.95C71.3311 144.634 70.9019 144.456 70.4543 144.456H61.5948C61.1472 144.456 60.718 144.634 60.4015 144.95C60.0851 145.266 59.9073 145.695 59.9073 146.142V147.406H58.6416V146.142C58.6416 145.695 58.4638 145.266 58.1474 144.95C57.8309 144.634 57.4017 144.456 56.9541 144.456H48.0946C47.647 144.456 47.2178 144.634 46.9013 144.95C46.5848 145.266 46.407 145.695 46.407 146.142V147.406H45.1414V146.142C45.1414 145.695 44.9636 145.266 44.6471 144.95C44.3307 144.634 43.9014 144.456 43.4539 144.456H34.5943C34.1468 144.456 33.7176 144.634 33.4011 144.95C33.0846 145.266 32.9068 145.695 32.9068 146.142V147.406H31.6412V146.142C31.6412 145.695 31.4634 145.266 31.1469 144.95C30.8304 144.634 30.4012 144.456 29.9536 144.456H21.0941C20.6466 144.456 20.2173 144.634 19.9008 144.95C19.5844 145.266 19.4066 145.695 19.4066 146.142V147.406H12.0236C8.83476 147.406 5.7765 148.672 3.52164 150.924C1.26677 153.177 0 156.232 0 159.418C0 160.368 0.37781 161.279 1.05032 161.951C1.72282 162.623 2.63493 163 3.586 163H209.465C210.416 163 211.328 162.623 212 161.951C212.673 161.279 213.051 160.368 213.051 159.418C213.051 156.232 211.784 153.177 209.529 150.924C207.274 148.672 204.216 147.406 201.027 147.406Z" fill="#AAAAAA"/>
</g>
<defs>
<clipPath id="clip0_55_1015">
<rect width="295" height="163" fill="white"/>
</clipPath>
</defs>
</svg>
