<svg width="254" height="153" viewBox="0 0 254 153" fill="none" xmlns="http://www.w3.org/2000/svg">
<g clip-path="url(#clip0_55_604)">
<path d="M254 119.395C254.005 120.42 253.604 121.405 252.883 122.133C252.163 122.861 251.183 123.274 250.158 123.279H81.1304C80.6232 123.276 80.1216 123.174 79.6541 122.977C79.1865 122.781 78.7623 122.494 78.4055 122.133C78.0488 121.773 77.7665 121.345 77.5749 120.875C77.3833 120.406 77.286 119.903 77.2886 119.395V3.88388C77.2833 2.85917 77.685 1.8743 78.4055 1.14593C79.1259 0.417565 80.1061 0.00535877 81.1303 0H250.158C250.665 0.00263925 251.167 0.10519 251.635 0.301797C252.102 0.498403 252.526 0.785214 252.883 1.14586C253.24 1.5065 253.522 1.93391 253.714 2.40368C253.905 2.87345 254.003 3.37639 254 3.88377V119.395Z" fill="#E6E6E6"/>
<path d="M252.006 117.504C252.006 118.5 251.611 119.455 250.907 120.159C250.203 120.863 249.248 121.259 248.253 121.259H83.1521C82.1566 121.259 81.2018 120.863 80.4979 120.159C79.7939 119.455 79.3984 118.5 79.3984 117.504V5.82829C79.3984 4.83229 79.7939 3.87709 80.4979 3.17281C81.2018 2.46853 82.1566 2.07288 83.1521 2.07288H248.26C249.254 2.07488 250.207 2.47142 250.909 3.17548C251.612 3.87954 252.006 4.8336 252.006 5.82829V117.504Z" fill="white"/>
<path d="M88.2222 6.92151H243.358C243.949 6.92151 244.516 7.15636 244.934 7.57439C245.351 7.99242 245.586 8.55939 245.586 9.15058V113.748C245.586 114.339 245.351 114.906 244.934 115.324C244.516 115.742 243.949 115.977 243.358 115.977H88.2222C87.6313 115.977 87.0645 115.742 86.6467 115.324C86.2289 114.906 85.9941 114.339 85.9941 113.748V9.15058C85.9941 8.55939 86.2289 7.99242 86.6467 7.57439C87.0645 7.15636 87.6313 6.92151 88.2222 6.92151Z" fill="#E6E6E6"/>
<path d="M90.186 9.43005H241.226C241.817 9.43005 242.384 9.6649 242.801 10.0829C243.219 10.501 243.454 11.0679 243.454 11.6591V110.675C243.454 111.266 243.219 111.833 242.801 112.251C242.384 112.669 241.817 112.904 241.226 112.904H90.186C89.5951 112.904 89.0284 112.669 88.6106 112.251C88.1927 111.833 87.958 111.266 87.958 110.675V11.6591C87.958 11.0679 88.1927 10.501 88.6106 10.0829C89.0284 9.6649 89.5951 9.43005 90.186 9.43005Z" fill="white"/>
<path d="M196.831 78.2147C196.236 78.2143 195.648 78.089 195.105 77.8469C194.979 77.7908 194.858 77.7223 194.746 77.6424L183.769 69.9121C183.212 69.52 182.758 68.9998 182.444 68.3953C182.13 67.7908 181.966 67.1197 181.966 66.4386V55.896C181.966 55.2149 182.13 54.5438 182.444 53.9393C182.758 53.3348 183.212 52.8145 183.769 52.4225L194.746 44.6921C194.858 44.6122 194.979 44.5437 195.105 44.4876C195.752 44.2 196.46 44.0786 197.165 44.1344C197.871 44.1903 198.551 44.4216 199.144 44.8073C199.738 45.193 200.225 45.721 200.563 46.3432C200.901 46.9654 201.077 47.6621 201.077 48.3701V73.9645C201.077 75.0914 200.63 76.1721 199.834 76.9689C199.037 77.7657 197.957 78.2134 196.831 78.2134L196.831 78.2147Z" fill="#3F3D56"/>
<path d="M172.264 80.2873H141.649C135.403 80.2822 130.341 76.2428 130.334 71.2584V51.0761C130.341 46.0916 135.403 42.0522 141.649 42.0471H172.344C178.546 42.053 183.571 46.0634 183.578 51.0123V71.2584C183.572 76.2428 178.51 80.2822 172.264 80.2873Z" fill="#3F3D56"/>
<path d="M226.8 106.537C231.829 106.537 235.905 102.459 235.905 97.4278C235.905 92.3967 231.829 88.3182 226.8 88.3182C221.771 88.3182 217.695 92.3967 217.695 97.4278C217.695 102.459 221.771 106.537 226.8 106.537Z" fill="#E6E6E6"/>
<path d="M231.53 97.2644L224.272 93.0721C224.243 93.0556 224.211 93.0469 224.177 93.0469C224.144 93.0469 224.112 93.0556 224.083 93.0721C224.055 93.0887 224.031 93.1125 224.014 93.1412C223.998 93.1698 223.989 93.2023 223.989 93.2354V101.62C223.989 101.653 223.998 101.686 224.014 101.714C224.031 101.743 224.055 101.767 224.083 101.783C224.112 101.8 224.144 101.809 224.177 101.809C224.211 101.809 224.243 101.8 224.272 101.783L231.53 97.591C231.558 97.5745 231.582 97.5507 231.599 97.522C231.615 97.4933 231.624 97.4608 231.624 97.4277C231.624 97.3946 231.615 97.3621 231.599 97.3335C231.582 97.3048 231.558 97.281 231.53 97.2644L224.272 93.0721C224.243 93.0556 224.211 93.0469 224.177 93.0469C224.144 93.0469 224.112 93.0556 224.083 93.0721C224.055 93.0887 224.031 93.1125 224.014 93.1412C223.998 93.1698 223.989 93.2023 223.989 93.2354V101.62C223.989 101.653 223.998 101.686 224.014 101.714C224.031 101.743 224.055 101.767 224.083 101.783C224.112 101.8 224.144 101.809 224.177 101.809C224.211 101.809 224.243 101.8 224.272 101.783L231.53 97.591C231.558 97.5745 231.582 97.5507 231.599 97.522C231.615 97.4933 231.624 97.4608 231.624 97.4277C231.624 97.3946 231.615 97.3621 231.599 97.3335C231.582 97.3048 231.558 97.281 231.53 97.2644Z" fill="white"/>
<path d="M214.978 133.248C214.983 134.273 214.582 135.258 213.861 135.986C213.141 136.714 212.161 137.127 211.136 137.132H42.1084C41.6013 137.129 41.0996 137.027 40.6321 136.83C40.1646 136.634 39.7403 136.347 39.3836 135.986C39.0268 135.626 38.7446 135.198 38.5529 134.728C38.3613 134.259 38.264 133.756 38.2667 133.248V17.7369C38.2613 16.7122 38.663 15.7273 39.3835 14.999C40.1039 14.2706 41.0841 13.8584 42.1083 13.853H211.136C211.643 13.8557 212.145 13.9582 212.613 14.1548C213.08 14.3514 213.504 14.6382 213.861 14.9989C214.218 15.3595 214.5 15.7869 214.692 16.2567C214.883 16.7265 214.981 17.2294 214.978 17.7368V133.248Z" fill="#E6E6E6"/>
<path d="M212.984 131.357C212.984 132.353 212.589 133.308 211.885 134.012C211.181 134.716 210.226 135.112 209.231 135.112H44.1301C43.1346 135.112 42.1798 134.716 41.4759 134.012C40.7719 133.308 40.3765 132.353 40.3765 131.357V19.6813C40.3765 18.6853 40.7719 17.7301 41.4759 17.0258C42.1798 16.3216 43.1346 15.9259 44.1301 15.9259H209.238C210.232 15.9279 211.185 16.3244 211.887 17.0285C212.59 17.7326 212.984 18.6866 212.984 19.6813V131.357Z" fill="white"/>
<path d="M49.2004 20.7744H204.336C204.927 20.7744 205.494 21.0093 205.912 21.4273C206.33 21.8453 206.564 22.4123 206.564 23.0035V127.601C206.564 128.192 206.33 128.759 205.912 129.177C205.494 129.595 204.927 129.83 204.336 129.83H49.2004C48.6095 129.83 48.0428 129.595 47.625 129.177C47.2071 128.759 46.9724 128.192 46.9724 127.601V23.0035C46.9724 22.4123 47.2071 21.8453 47.625 21.4273C48.0428 21.0093 48.6095 20.7744 49.2004 20.7744Z" fill="#E6E6E6"/>
<path d="M51.1641 23.2831H202.204C202.795 23.2831 203.362 23.5179 203.779 23.936C204.197 24.354 204.432 24.921 204.432 25.5122V124.528C204.432 125.119 204.197 125.686 203.779 126.104C203.362 126.523 202.795 126.757 202.204 126.757H51.1641C50.5731 126.757 50.0064 126.523 49.5886 126.104C49.1708 125.686 48.936 125.119 48.936 124.528V25.5122C48.936 24.921 49.1708 24.354 49.5886 23.936C50.0064 23.5179 50.5731 23.2831 51.1641 23.2831Z" fill="white"/>
<path d="M157.809 92.0677C157.214 92.0673 156.626 91.942 156.083 91.7C155.957 91.6438 155.836 91.5753 155.724 91.4955L144.747 83.7651C144.19 83.373 143.736 82.8528 143.422 82.2483C143.108 81.6438 142.944 80.9727 142.944 80.2916V69.749C142.944 69.0679 143.108 68.3968 143.422 67.7923C143.736 67.1878 144.19 66.6676 144.747 66.2755L155.724 58.5451C155.836 58.4653 155.957 58.3968 156.083 58.3407C156.73 58.0531 157.438 57.9316 158.143 57.9875C158.849 58.0433 159.529 58.2746 160.123 58.6603C160.716 59.0461 161.203 59.574 161.541 60.1962C161.879 60.8184 162.055 61.5152 162.055 62.2231V87.8175C162.055 88.9444 161.608 90.0251 160.812 90.8219C160.015 91.6188 158.935 92.0664 157.809 92.0664L157.809 92.0677Z" fill="#3F3D56"/>
<path d="M133.242 94.1404H102.627C96.3808 94.1353 91.3189 90.0958 91.3125 85.1114V64.9291C91.3189 59.9447 96.3808 55.9053 102.627 55.9001H133.322C139.524 55.906 144.549 59.9164 144.556 64.8654V85.1114C144.55 90.0958 139.488 94.1353 133.242 94.1404Z" fill="#3F3D56"/>
<path d="M187.778 120.39C192.807 120.39 196.884 116.312 196.884 111.281C196.884 106.25 192.807 102.171 187.778 102.171C182.75 102.171 178.673 106.25 178.673 111.281C178.673 116.312 182.75 120.39 187.778 120.39Z" fill="#E6E6E6"/>
<path d="M192.508 111.117L185.25 106.925C185.221 106.909 185.189 106.9 185.156 106.9C185.122 106.9 185.09 106.909 185.061 106.925C185.033 106.942 185.009 106.966 184.992 106.994C184.976 107.023 184.967 107.055 184.967 107.088V115.473C184.967 115.506 184.976 115.539 184.992 115.567C185.009 115.596 185.033 115.62 185.061 115.636C185.09 115.653 185.122 115.662 185.156 115.662C185.189 115.662 185.221 115.653 185.25 115.636L192.508 111.444C192.536 111.428 192.56 111.404 192.577 111.375C192.593 111.346 192.602 111.314 192.602 111.281C192.602 111.248 192.593 111.215 192.577 111.187C192.56 111.158 192.536 111.134 192.508 111.117L185.25 106.925C185.221 106.909 185.189 106.9 185.156 106.9C185.122 106.9 185.09 106.909 185.061 106.925C185.033 106.942 185.009 106.966 184.992 106.994C184.976 107.023 184.967 107.055 184.967 107.088V115.473C184.967 115.506 184.976 115.539 184.992 115.567C185.009 115.596 185.033 115.62 185.061 115.636C185.09 115.653 185.122 115.662 185.156 115.662C185.189 115.662 185.221 115.653 185.25 115.636L192.508 111.444C192.536 111.428 192.56 111.404 192.577 111.375C192.593 111.346 192.602 111.314 192.602 111.281C192.602 111.248 192.593 111.215 192.577 111.187C192.56 111.158 192.536 111.134 192.508 111.117Z" fill="white"/>
<path d="M176.711 149.116C176.717 150.141 176.315 151.126 175.595 151.854C174.874 152.582 173.894 152.995 172.87 153H3.84182C3.33468 152.997 2.83301 152.895 2.36548 152.698C1.89795 152.502 1.4737 152.215 1.11696 151.854C0.760215 151.493 0.477967 151.066 0.286328 150.596C0.0946896 150.127 -0.0025863 149.624 5.28671e-05 149.116V33.6048C-0.00530269 32.5801 0.396433 31.5952 1.11688 30.8669C1.83733 30.1385 2.81749 29.7263 3.84171 29.7209H172.87C173.377 29.7236 173.878 29.8261 174.346 30.0227C174.813 30.2194 175.238 30.5062 175.594 30.8668C175.951 31.2274 176.233 31.6549 176.425 32.1246C176.617 32.5944 176.714 33.0973 176.711 33.6047V149.116Z" fill="#E6E6E6"/>
<path d="M174.718 147.225C174.718 148.221 174.322 149.176 173.618 149.88C172.914 150.584 171.96 150.98 170.964 150.98H5.86352C4.86799 150.98 3.91323 150.584 3.20928 149.88C2.50534 149.176 2.10986 148.221 2.10986 147.225V35.5492C2.10986 34.5532 2.50534 33.598 3.20928 32.8938C3.91323 32.1895 4.86799 31.7938 5.86352 31.7938H170.972C171.966 31.7958 172.919 32.1924 173.621 32.8964C174.323 33.6005 174.718 34.5546 174.718 35.5492V147.225Z" fill="white"/>
<path d="M10.9338 36.6425H166.07C166.661 36.6425 167.227 36.8773 167.645 37.2953C168.063 37.7134 168.298 38.2803 168.298 38.8715V143.469C168.298 144.06 168.063 144.627 167.645 145.045C167.227 145.463 166.661 145.698 166.07 145.698H10.9338C10.3429 145.698 9.77622 145.463 9.35838 145.045C8.94055 144.627 8.70581 144.06 8.70581 143.469V38.8715C8.70581 38.2803 8.94055 37.7134 9.35838 37.2953C9.77622 36.8773 10.3429 36.6425 10.9338 36.6425Z" fill="#E6E6E6"/>
<path d="M12.8975 39.1511H163.937C164.23 39.1511 164.52 39.2088 164.79 39.3208C165.06 39.4328 165.306 39.597 165.513 39.804C165.72 40.011 165.884 40.2567 165.996 40.5272C166.108 40.7976 166.165 41.0875 166.165 41.3802V140.396C166.165 140.689 166.108 140.979 165.996 141.249C165.884 141.52 165.72 141.766 165.513 141.973C165.306 142.18 165.06 142.344 164.79 142.456C164.52 142.568 164.23 142.625 163.937 142.625H12.8975C12.3065 142.625 11.7398 142.391 11.322 141.973C10.9042 141.555 10.6694 140.988 10.6694 140.396V41.3802C10.6694 40.789 10.9042 40.222 11.322 39.804C11.7398 39.386 12.3065 39.1511 12.8975 39.1511Z" fill="white"/>
<path d="M119.542 108.275C118.947 108.275 118.36 108.15 117.817 107.907C117.69 107.851 117.57 107.783 117.457 107.703L106.48 99.9726C105.923 99.5806 105.469 99.0604 105.155 98.4558C104.842 97.8513 104.678 97.1802 104.678 96.4991V85.9565C104.678 85.2754 104.842 84.6043 105.155 83.9998C105.469 83.3953 105.923 82.8751 106.48 82.483L117.457 74.7527C117.57 74.6728 117.69 74.6043 117.817 74.5482C118.463 74.2606 119.171 74.1392 119.877 74.195C120.582 74.2508 121.263 74.4821 121.856 74.8678C122.449 75.2536 122.937 75.7815 123.274 76.4037C123.612 77.0259 123.789 77.7227 123.789 78.4306V104.025C123.789 105.152 123.341 106.233 122.545 107.029C121.749 107.826 120.668 108.274 119.542 108.274L119.542 108.275Z" fill="#FDC248"/>
<path d="M94.9755 110.008H64.3602C58.1142 110.003 53.0523 105.964 53.0459 100.979V80.797C53.0523 75.8126 58.1142 71.7732 64.3602 71.7681H95.0554C101.257 71.7739 106.283 75.7844 106.29 80.7333V100.979C106.283 105.964 101.222 110.003 94.9755 110.008Z" fill="#FDC248"/>
<path d="M149.512 136.258C154.54 136.258 158.617 132.18 158.617 127.149C158.617 122.118 154.54 118.039 149.512 118.039C144.483 118.039 140.406 122.118 140.406 127.149C140.406 132.18 144.483 136.258 149.512 136.258Z" fill="#3F3D56"/>
<path d="M154.241 126.985L146.983 122.793C146.954 122.777 146.922 122.768 146.889 122.768C146.856 122.768 146.823 122.777 146.795 122.793C146.766 122.81 146.742 122.833 146.726 122.862C146.709 122.891 146.7 122.923 146.7 122.956V131.341C146.7 131.374 146.709 131.407 146.726 131.435C146.742 131.464 146.766 131.488 146.795 131.504C146.823 131.521 146.856 131.53 146.889 131.53C146.922 131.53 146.954 131.521 146.983 131.504L154.241 127.312C154.27 127.295 154.293 127.272 154.31 127.243C154.327 127.214 154.335 127.182 154.335 127.149C154.335 127.116 154.327 127.083 154.31 127.054C154.293 127.026 154.27 127.002 154.241 126.985L146.983 122.793C146.954 122.777 146.922 122.768 146.889 122.768C146.856 122.768 146.823 122.777 146.795 122.793C146.766 122.81 146.742 122.833 146.726 122.862C146.709 122.891 146.7 122.923 146.7 122.956V131.341C146.7 131.374 146.709 131.407 146.726 131.435C146.742 131.464 146.766 131.488 146.795 131.504C146.823 131.521 146.856 131.53 146.889 131.53C146.922 131.53 146.954 131.521 146.983 131.504L154.241 127.312C154.27 127.295 154.293 127.272 154.31 127.243C154.327 127.214 154.335 127.182 154.335 127.149C154.335 127.116 154.327 127.083 154.31 127.054C154.293 127.026 154.27 127.002 154.241 126.985Z" fill="white"/>
</g>
<defs>
<clipPath id="clip0_55_604">
<rect width="254" height="153" fill="white"/>
</clipPath>
</defs>
</svg>
